/* XPM */
static char *east_xpm[] = {
"7 7 2 1",
". c #FFFFFF", // fondo blanco
"E c #FFFF00", // letra amarilla
".......",
".EEEEE.",
".E.....",
".EEE...",
".E.....",
".EEEEE.",
"......."
};
