/* XPM */
static char *dc45d69185aa4b9e86b8f632197eb1629g1SgOfYWqWjrpfD[] = {
/* columns rows colors chars-per-pixel */
"32 32 187 2 ",
"   c #020202",
".  c #0B0101",
"X  c #010A02",
"o  c #01030B",
"O  c #0B000D",
"+  c #000C0A",
"@  c #130003",
"#  c #10000C",
"$  c #140C0A",
"%  c #010212",
"&  c #0B0013",
"*  c #070220",
"=  c #1C5E1E",
"-  c #255F15",
";  c #2A5915",
":  c #275F18",
">  c #2D5E1C",
",  c #335D1C",
"<  c #3B5B1A",
"1  c #1D6815",
"2  c #1F621D",
"3  c #176B1E",
"4  c #1F6C1E",
"5  c #2D690F",
"6  c #266413",
"7  c #2A6A14",
"8  c #26641D",
"9  c #2B641C",
"0  c #246C1C",
"q  c #2B6B1D",
"w  c #306517",
"e  c #3B6316",
"r  c #326912",
"t  c #32651C",
"y  c #3C631E",
"u  c #346B1E",
"i  c #3A6C1C",
"p  c #267210",
"a  c #23721B",
"s  c #2E7018",
"d  c #1D5E28",
"f  c #215C26",
"g  c #2B5D23",
"h  c #2D5D2C",
"j  c #365D25",
"k  c #365D2A",
"l  c #2B5F38",
"z  c #345A33",
"x  c #3B5E33",
"c  c #305E3A",
"v  c #156727",
"b  c #1E6B23",
"n  c #1E662C",
"m  c #1D692B",
"M  c #167227",
"N  c #1F7426",
"B  c #1E702E",
"V  c #1F6634",
"C  c #1B6C32",
"Z  c #246424",
"A  c #2C6424",
"S  c #256B23",
"D  c #2B6C24",
"F  c #24652D",
"G  c #2C652B",
"H  c #256B2B",
"J  c #2D6829",
"K  c #326424",
"L  c #396225",
"P  c #326B24",
"I  c #396A25",
"U  c #33642B",
"Y  c #3A632C",
"T  c #326B2B",
"R  c #396B2B",
"E  c #257122",
"W  c #2B7125",
"Q  c #257820",
"!  c #24722B",
"~  c #2D712A",
"^  c #347023",
"/  c #34712D",
"(  c #39712D",
")  c #246633",
"_  c #2B6533",
"`  c #246A34",
"'  c #2C6C33",
"]  c #22663F",
"[  c #2D6239",
"{  c #336534",
"}  c #3A6535",
"|  c #336B33",
" . c #3B6B32",
".. c #35643A",
"X. c #39653A",
"o. c #336B39",
"O. c #386E3C",
"+. c #277132",
"@. c #2D7131",
"#. c #327132",
"$. c #426322",
"%. c #486827",
"&. c #456637",
"*. c #446933",
"=. c #40673A",
"-. c #3F5441",
";. c #296740",
":. c #2A6B40",
">. c #346545",
",. c #346D40",
"<. c #3A7241",
"1. c #D4AD5E",
"2. c #D9AF5D",
"3. c #C8B451",
"4. c #C7B950",
"5. c #CDB658",
"6. c #C6BC5A",
"7. c #C8B95C",
"8. c #D7B355",
"9. c #D2B857",
"0. c #D5B75F",
"q. c #DCB75C",
"w. c #D6B95C",
"e. c #E3B55D",
"r. c #E0B95C",
"t. c #D0AC6E",
"y. c #C3B365",
"u. c #CAB467",
"i. c #CCBA64",
"p. c #CFB76F",
"a. c #CDBC6D",
"s. c #D3B363",
"d. c #DBB464",
"f. c #D3BB64",
"g. c #DCBA65",
"h. c #D5B36B",
"j. c #D9B56B",
"k. c #DEB56E",
"l. c #DAB26C",
"z. c #D4B96A",
"x. c #D5BF6A",
"c. c #D5BD6E",
"v. c #DDBC6B",
"b. c #DFB96E",
"n. c #DEBA6C",
"m. c #D9BE6F",
"M. c #DDBE6C",
"N. c #DCBD6B",
"B. c #DBAE77",
"V. c #DDAF73",
"C. c #D6AC7A",
"Z. c #CAB671",
"A. c #CEBD71",
"S. c #D3B373",
"D. c #DBB572",
"F. c #D8B676",
"G. c #DCB374",
"H. c #D7BD70",
"J. c #D4BF70",
"K. c #D4BB75",
"L. c #DEBC75",
"P. c #D9B970",
"I. c #D5B079",
"U. c #DDB27B",
"Y. c #D0BD78",
"T. c #E0B360",
"R. c #E0B066",
"E. c #E6B765",
"W. c #E2B86C",
"Q. c #E1BC6A",
"!. c #E2B772",
"~. c #E6B678",
"^. c #E2B979",
"/. c #C5C15E",
"(. c #CCC064",
"). c #CFC46B",
"_. c #CAC26F",
"`. c #CFC46A",
"'. c #DBC160",
"]. c #CCC076",
"[. c #D7C070",
"{. c #D5C37B",
"}. c #CBB583",
"|. c #DAB581",
" X c #D1BB82",
".X c #B4C082",
"XX c #C6C380",
/* pixels */
"H.3.~ u %       z.S A S  .q P _ K I ' .   X D.K { m P J j . h.` ",
"j.@.-     w.] o   s.^ x H U r T _   . m._   . i.e ! D . +   6.P ",
"D.G . o k.C J ,   o d.v.` ` :.6 A X f.t D )   `.Z } t   C.D =.< ",
"0.7   u.I Y 7 T t 0 o   u.r >.  X . L.j K ~   h.~ U B X q.X.0 G ",
"O     1...S h D Y J (   *.7     n.|.1 S ..9 @ ^.A U q   x.D 0 ,.",
"  n.H.R 3 T F | E b z   n X.  k.k #.Y n u H `   A.D P % F.U Y 6 ",
"W.0 U S o.7 { j } 0 { + $.2 + a.7 a G 9 ( G Z X B.K   4...9 L | ",
"F.D S k ' I A N Y a A   Y '   T.| 8 { R v &.t . M.  _.} J D J D ",
"d.P S t _ o.U q J w { X Z * . f.} 0 A D u 8 +.  + R.J c J G D _ ",
"Z.;.~ G L A M Y } b V J @ X Q.' Z W G h J | g #.@ d.P 6 Q K u _ ",
"f.g H o.a .   .   u F i O `.Y D S . o o O   K 2 o H.Z o   . o . ",
"@.e u A A X i.G.  h t G   c.J @ o   E.5.[   $ U   [.9   U.a.G.H ",
"U A J D O % N.i.. & , U o S.%   w.a.7 *.A )   D # y.| @ d.` D Y ",
"A G l   . t.d.!.i.  | N .   (.g.T 8 ' Z s T + .     .   Y.S G q ",
"D   X . ].{.F 0 ` . . ..  d.k U G O.k Y z | a K . o A.s.J P  .H ",
"A   K.r.d.) i A q Z   K o '.G H J 7 A S | G q { & a.u 5 ' L F U ",
"S   g.X.9 ' W A G r %   o Q.8 U J J J J J J J J o S.D 9 ..t H U ",
"x o 9.K | H > T A A T +   d.~ J J J J J J J J J   P.J $.F q U Z ",
"  X (.D G K H U A R = { o f._ D J J J J J J J J   X 7._ ' 8 Y J ",
". I.q J A | J U E h ^ { t . y K J J J J J J J J Y o m.K d ~ y F ",
"}.c.F G R A D G J D _ i 8   XXA J J J J J J J J A   D.U P D | T ",
"e.P j b { > D | Y ~ 4 A #.  n.' J J J J J J J J 9 % V.R I A Z D ",
"8.` I q } H L S U J S | G . 2.F J J J J J J J J S     /.F } P J ",
"K.V T 7 t [ T D D K ) T J   g.U J J J J J J J J G }   a.W j { 0 ",
".X$.P D T A Z J S J P 9 } X O v.J J J J J J J J A S   ~.A D T A ",
"%.; T Z J T T A J F T K A  .  f.J J J J J J J J } A W   l.T H J ",
"9 T H Z J K T J K o.G 8 q :   K.J J J J J J J J { D J   c.D G P ",
"J ~ Z J T K A J P A Z D ~ (   K.J J J J J J J J J b   p.w | T A ",
"A J J T A T A D K D / J f U . s.J J J J J J J J q G   v.0 z 0 T ",
" .U R R g T J J _ G D _ <.g   0.J J J J J J J J K U   l.A #.S J ",
"J A A T T J A A o.G A G Z R    XJ J J J J J J J A ~   k.J ! A U ",
"S / J A D J J U 9 D P T D D % . J J J J J J J J D J & (.p -.0 R "
};
